<?xml version="1.0" encoding="utf-8"?>
<!-- Generator: Adobe Illustrator 19.0.0, SVG Export Plug-In . SVG Version: 6.00 Build 0)  -->
<svg version="1.1" id="Layer_1" xmlns="http://www.w3.org/2000/svg" xmlns:xlink="http://www.w3.org/1999/xlink" x="0px" y="0px"
	 viewBox="-231.5 360.6 54 72.4" style="enable-background:new -231.5 360.6 54 72.4;" xml:space="preserve">
<path d="M-230.4,360.6c-0.6,0.1-1,0.4-1.1,1.1l0,70.2c0.1,0.6,0.5,1,1.1,1.1l51.8,0c0.6,0.1,1-0.4,1.1-1.1l0-70.2
	c0.1-0.6-0.4-1-1.1-1.1L-230.4,360.6z M-199,369c0-1,0.8-1.8,1.8-1.9s1.9,0.8,1.9,1.8c0,1-0.8,1.8-1.8,1.9
	C-198.2,370.9-199,370-199,369z M-195.2,374.7c0,1-0.8,1.8-1.8,1.9c-1,0-1.9-0.8-1.9-1.8c0-1,0.8-1.8,1.8-1.9
	C-196.1,372.8-195.2,373.6-195.2,374.7z M-200.2,390l0,8.5l-8.5,0l0-8.5L-200.2,390z M-212,382.2c0-2.3,1.8-4.1,4.1-4.2
	c2.3,0,4.1,1.8,4.2,4.1c0,2.3-1.8,4.1-4.1,4.2C-210,386.4-212,384.5-212,382.2z M-200.3,399.7l0,8.5l-8.5,0l0-8.5L-200.3,399.7z
	 M-209.6,398.4l-8.5,0l0-8.5l8.5,0L-209.6,398.4z M-209.6,399.7l0,8.5l-8.5,0l0-8.5L-209.6,399.7z M-209.6,409.5l0,8.5l-8.4,0l0-8.5
	L-209.6,409.5z M-208.8,409.6l8.5,0l0,8.4l-8.4,0L-208.8,409.6z M-199.4,409.5l8.5,0l0,8.5l-8.5,0L-199.4,409.5z M-199.4,408.2
	l0-8.5l8.5,0l0,8.5L-199.4,408.2z M-199.4,398.4l0-8.5l8.5,0l0,8.5L-199.4,398.4z M-197.1,382.3c-1,0-1.8-0.8-1.9-1.8
	c0-1,0.8-1.9,1.8-1.9c1,0,1.8,0.8,1.9,1.8C-195.2,381.4-196.1,382.3-197.1,382.3z M-213,366l6.3,0c0.2-0.4,0.5-0.7,1-0.7l1.1,0.1
	c0.4,0,0.8,0.2,1,0.6l0.5,0l-0.1,1.1l-0.5,0c-0.2,0.4-0.5,0.7-1,0.7l-1.1-0.1c-0.4,0-0.8-0.2-1-0.6l-6.3,0L-213,366z M-213,372.1
	l2.6-0.1c0.1-0.3,0.6-0.6,0.9-0.6l1.1,0.1c0.4,0,0.7,0.3,0.9,0.5l4.2,0l0,1.1l-4.1,0c-0.2,0.4-0.5,0.7-1,0.7l-1.1-0.1
	c-0.5,0-0.9-0.3-1-0.8l-2.6,0L-213,372.1z M-224.9,365.4c0-1,0.8-1.8,1.8-1.9c1,0,1.8,0.8,1.9,1.8c0,1-0.8,1.9-1.8,1.9
	C-224,367.2-224.8,366.4-224.9,365.4z M-224.8,371.1c0-1,0.8-1.9,1.8-1.9c1,0,1.9,0.8,1.9,1.8c0,1-0.8,1.9-1.8,1.9
	C-223.9,372.9-224.8,372.1-224.8,371.1z M-224.8,376.8c0-1,0.8-1.8,1.8-1.9c1,0,1.8,0.8,1.9,1.8c0,1-0.8,1.9-1.8,1.9
	C-224,378.7-224.8,377.8-224.8,376.8z M-227.7,429.3l-0.1-48.5l6.6,0l0.1,48.6L-227.7,429.3z M-218.1,427.8l0-8.5l8.5,0l0,8.5
	L-218.1,427.8z M-208.7,427.8l0-8.5l8.5,0l0,8.5L-208.7,427.8z M-199.4,427.8l0-8.5l8.5,0l0,8.5L-199.4,427.8z M-181.5,427.8l-8.5,0
	l0-8.5l8.5,0L-181.5,427.8z M-181.6,417.9l-8.5,0l0-8.5l8.5,0L-181.6,417.9z M-181.6,408.3l-8.5,0l0-8.5l8.5,0L-181.6,408.3z
	 M-181.6,398.4l-8.5,0l0-8.5l8.5,0L-181.6,398.4z M-188.8,380.3c0,1-0.8,1.9-1.8,1.9c-1,0-1.8-0.8-1.9-1.8c0-1,0.8-1.8,1.8-1.9
	S-188.9,379.3-188.8,380.3z M-188.8,374.7c0,1-0.8,1.8-1.8,1.9c-1,0-1.9-0.8-1.9-1.8c0-1,0.8-1.9,1.8-1.9
	C-189.7,372.8-188.9,373.7-188.8,374.7z M-188.9,369c0,1-0.8,1.9-1.8,1.9c-1,0-1.8-0.8-1.9-1.8c0-1,0.8-1.8,1.8-1.9
	C-189.8,367.1-188.8,367.9-188.9,369z"/>
</svg>
